<?xml version="1.0" encoding="iso-8859-1"?>
<!-- Generator: Adobe Illustrator 19.0.0, SVG Export Plug-In . SVG Version: 6.00 Build 0)  -->
<svg version="1.1" id="Capa_1" xmlns="http://www.w3.org/2000/svg" xmlns:xlink="http://www.w3.org/1999/xlink" x="0px" y="0px"
	 viewBox="0 0 512 512" style="enable-background:new 0 0 512 512;" xml:space="preserve">
<path style="fill:#804231;" d="M421,105c0-42.001-46.199-75-105-75c-10.499,0-20.4,0.899-30.3,2.999
	c-7.8-9.6-17.999-17.401-29.7-22.8C242.5,3.6,226.901,0,211,0c-49.501,0-90,33.6-90,75c0,5.4,0.601,10.8,2.1,16.199
	C88.001,97.2,61,128.099,61,165c0,22.5,9.901,43.5,27.299,57.9c16.8,13.801,39.001,19.799,60.901,15.899L256,238.5h105.3
	c4.799,0.899,9.6,1.5,14.7,1.5c17.401,0,34.2-6,47.701-17.1C441.099,208.5,451,187.5,451,165C451,141.299,439.6,119.099,421,105z"/>
<path style="fill:#663325;" d="M451,165c0,22.5-9.901,43.5-27.299,57.9C410.2,234,393.401,240,376,240
	c-5.099,0-9.901-0.601-14.7-1.5H256V10.199c11.7,5.4,21.899,13.2,29.7,22.8C295.6,30.899,305.501,30,316,30
	c58.801,0,105,32.999,105,75C439.6,119.099,451,141.299,451,165z"/>
<path style="fill:#F89580;" d="M406,300h-15l-30-45l30-45h15c24.853,0,45,20.147,45,45l0,0C451,279.853,430.853,300,406,300z"/>
<path style="fill:#FFA78F;" d="M121,300h-15c-24.853,0-45-20.147-45-45l0,0c0-24.853,20.147-45,45-45h15l30,45L121,300z"/>
<path style="fill:#FFCEBF;" d="M391,210v165c0,74.399-60.601,137-135,137s-135-62.601-135-137V210h15c31.199,0,58.2-19.2,69.3-46.5
	c15.601,11.999,32.701,21.899,50.7,29.399c26.4,11.1,55.201,17.1,84.901,17.1L391,210L391,210z"/>
<path style="fill:#FFBFAB;" d="M391,210v165c0,74.399-60.601,137-135,137V192.9c26.4,11.1,55.201,17.1,84.901,17.1H391z"/>
<circle style="fill:#804231;" cx="195.97" cy="255" r="15"/>
<circle style="fill:#663325;" cx="315.97" cy="255" r="15"/>
<path style="fill:#804231;" d="M271,405v32c0,8.399-6.599,15-15,15s-15-6.601-15-15v-32c0-8.401,6.599-15,15-15S271,396.599,271,405
	z"/>
<path style="fill:#FFA78F;" d="M271,345c0,8.399-6.599,15-15,15c-24.901,0-45-20.101-45-45c0-24.901,20.099-45,45-45
	c8.401,0,15,6.599,15,15c0,8.399-6.599,15-15,15s-15,6.599-15,15c0,8.399,6.599,15,15,15S271,336.599,271,345z"/>
<path style="fill:#F89580;" d="M256,300v-30c8.401,0,15,6.599,15,15C271,293.399,264.401,300,256,300z"/>
<path style="fill:#663325;" d="M271,405v32c0,8.399-6.599,15-15,15v-62C264.401,390,271,396.599,271,405z"/>
<path style="fill:#804231;" d="M329.5,366.599c-3.9,7.5-12.599,10.501-20.099,6.901L282.4,360h-52.8l-27.001,13.5
	c-7.2,3.6-16.199,0.599-20.099-6.901c-3.6-7.2-0.599-16.199,6.901-20.099l30-15c2.098-0.901,4.199-1.5,6.599-1.5h60
	c2.401,0,4.501,0.599,6.599,1.5l30,15C330.099,350.4,333.1,359.399,329.5,366.599z"/>
<path style="fill:#663325;" d="M329.5,366.599c-3.9,7.5-12.599,10.501-20.099,6.901L282.4,360H256v-30h30
	c2.401,0,4.501,0.599,6.599,1.5l30,15C330.099,350.4,333.1,359.399,329.5,366.599z"/>
<g>
</g>
<g>
</g>
<g>
</g>
<g>
</g>
<g>
</g>
<g>
</g>
<g>
</g>
<g>
</g>
<g>
</g>
<g>
</g>
<g>
</g>
<g>
</g>
<g>
</g>
<g>
</g>
<g>
</g>
</svg>
